<?xml version="1.0" encoding="utf-8"?>
<svg xmlns="http://www.w3.org/2000/svg" viewBox="0 0.0002 150.0017 150.0241" width="150px" height="150px" preserveAspectRatio="none"><g id="Layer_1" transform="matrix(0.7385600209236145, 0, 0, 0.7489969730377197, -275.0993347167969, -108.40140533447266)" style=""><g transform="matrix(1, 0, 0, 1, 288.180725, 50.529301)"><path fill="#3279B2" d="M84.3,266.3V149.7c0-9.2,3.3-17.1,9.9-23.6c6.6-6.5,14.4-9.8,23.5-9.8h33.4c9.1,0,16.9,3.3,23.4,9.9 c6.5,6.6,9.8,14.4,9.8,23.5v116.6h-33.2v-66.6h-33.4v66.6H84.3z M117.7,182.9h33.4v-33.2c0-4.7-1.6-8.6-4.9-11.9 c-3.3-3.3-7.2-4.9-11.9-4.9c-4.5,0-8.4,1.6-11.7,4.9c-3.3,3.3-4.9,7.2-4.9,11.9V182.9z"/></g><polygon fill="#BB6026" points="575.581 248.429 488.981 345.029 506.481 248.429" style="stroke-width: 1px;"/><polygon fill="#D37744" points="575.581 241.429 488.981 144.729 506.481 241.429" style="stroke-width: 1px;"/></g></svg>