<?xml version="1.0" encoding="UTF-8" standalone="no"?><!DOCTYPE svg PUBLIC "-//W3C//DTD SVG 1.1//EN" "http://www.w3.org/Graphics/SVG/1.1/DTD/svg11.dtd"><svg width="100%" height="100%" viewBox="0 0 1024 1024" version="1.1" xmlns="http://www.w3.org/2000/svg" xmlns:xlink="http://www.w3.org/1999/xlink" xml:space="preserve" xmlns:serif="http://www.serif.com/" style="fill-rule:evenodd;clip-rule:evenodd;stroke-linejoin:round;stroke-miterlimit:2;"><path d="M51.966,658.5c0.077,-2.236 0.069,-2.233 0.069,-236c0,-134.624 -2.242,-146.733 14.67,-181.897c20.037,-41.662 58.362,-67.541 79.863,-75.936c31.989,-12.49 32.819,-10.939 153.932,-10.939c55.735,-0 93.445,-3.935 132.945,22.854c70.437,47.772 70.751,115.158 71.248,122.909c1.24,19.341 0.326,492.209 0.244,535.01c-0.01,5.271 1.858,7.772 -3.436,7.773c-145.602,0.009 -145.984,0.066 -146.555,-0.953c-0.374,-0.666 -0.083,-255.123 -0.171,-301.823c-0.007,-3.821 -1.521,-3.084 -5.274,-3.084c-145.008,-0.002 -145.11,-0.041 -145.707,0.434c-0.716,0.571 -0.64,0.79 -0.64,284.653c0,18.197 0.873,20.746 -2.657,20.772c-11.816,0.087 -145.232,1.075 -147.708,-0.243c-0.924,-0.491 -0.823,-0.864 -0.823,-183.529Zm233.566,-428.463c-11.748,-0.73 -29.37,-1.215 -49.374,12.998c-25.113,17.842 -30.187,41.951 -30.803,44.43c-2.494,10.051 -2.204,10.134 -2.202,163.035c0,6.247 -1.881,9.087 4.346,9.087c145.5,0.001 145.501,0.008 145.987,-0.128c1.464,-0.41 1.287,-1.146 1.287,-87.959c0,-71.363 2.46,-88.039 -14.751,-110.636c-23.641,-31.039 -53.454,-30.691 -54.491,-30.827Z" style="fill:#3279b2;"/></svg>