<?xml version="1.0" encoding="UTF-8" standalone="no"?><!DOCTYPE svg PUBLIC "-//W3C//DTD SVG 1.1//EN" "http://www.w3.org/Graphics/SVG/1.1/DTD/svg11.dtd"><svg width="100%" height="100%" viewBox="0 0 1024 1024" version="1.1" xmlns="http://www.w3.org/2000/svg" xmlns:xlink="http://www.w3.org/1999/xlink" xml:space="preserve" xmlns:serif="http://www.serif.com/" style="fill-rule:evenodd;clip-rule:evenodd;stroke-linejoin:round;stroke-miterlimit:2;"><path d="M579.85,970.38c1.145,-4.759 1.008,-4.701 52.041,-289.821c5.376,-30.036 5.555,-29.933 10.807,-60.026c7.346,-42.094 16.073,-90.108 16.254,-90.854c0.315,-1.296 1.009,-1.15 134.548,-1.15c176.607,0 176.666,-0.02 176.845,0.162c1.069,1.09 -3.492,5.05 -5.349,7.251c-3.249,3.851 -124.973,141.431 -127.154,143.863c-89.431,99.743 -87.804,101.106 -177.384,200.657c-6.379,7.089 -70.163,77.973 -78.766,89.47c-0.76,1.016 -0.916,0.478 -1.842,0.448Z" style="fill:#bb6026;"/></svg>